HIERARCHY
ROOT Hips
{
    OFFSET   0.000000   0.000000   0.000000
    CHANNELS 6 Xposition Yposition Zposition Zrotation Xrotation Yrotation
    JOINT Chest
    {
        OFFSET   0.000000   8.007240   0.000000
        CHANNELS 3 Zrotation Xrotation Yrotation
        JOINT Chest2
        {
            OFFSET   0.000000  22.077100   0.000000
            CHANNELS 3 Zrotation Xrotation Yrotation
            JOINT Neck
            {
                OFFSET   0.000000  23.254800   0.000000
                CHANNELS 3 Zrotation Xrotation Yrotation
                JOINT Head
                {
                    OFFSET   0.000000  14.370000   1.956600
                    CHANNELS 3 Zrotation Xrotation Yrotation
                    End Site
                    {
                        OFFSET   0.000000  19.566000   0.000000
                    }
                }
            }
            JOINT LeftCollar
            {
                OFFSET   3.911900  19.017000  -0.467064
                CHANNELS 3 Zrotation Xrotation Yrotation
                JOINT LeftShoulder
                {
                    OFFSET  10.383700   0.000000   0.000000
                    CHANNELS 3 Zrotation Xrotation Yrotation
                    JOINT LeftElbow
                    {
                        OFFSET  26.662100   0.001476   0.000517
                        CHANNELS 3 Zrotation Xrotation Yrotation
                        JOINT LeftWrist
                        {
                            OFFSET  28.869000  -0.000025  -0.000106
                            CHANNELS 3 Zrotation Xrotation Yrotation
                            JOINT LeftFinger0
                            {
                                OFFSET   2.044660  -2.323460   3.252850
                                CHANNELS 3 Zrotation Xrotation Yrotation
                                JOINT LeftFinger01
                                {
                                    OFFSET   3.088130   0.000000   0.000000
                                    CHANNELS 3 Zrotation Xrotation Yrotation
                                    JOINT LeftFinger02
                                    {
                                        OFFSET   2.639460   0.000000   0.000000
                                        CHANNELS 3 Zrotation Xrotation Yrotation
                                        End Site
                                        {
                                            OFFSET   2.582190   0.000000   0.000000
                                        }
                                    }
                                }
                            }
                            JOINT LeftFinger1
                            {
                                OFFSET   8.364480   0.000000   3.252850
                                CHANNELS 3 Zrotation Xrotation Yrotation
                                JOINT LeftFinger11
                                {
                                    OFFSET   4.646930   0.000000   0.000000
                                    CHANNELS 3 Zrotation Xrotation Yrotation
                                    JOINT LeftFinger12
                                    {
                                        OFFSET   2.323460   0.000000   0.000000
                                        CHANNELS 3 Zrotation Xrotation Yrotation
                                        End Site
                                        {
                                            OFFSET   2.273050   0.000000   0.000000
                                        }
                                    }
                                }
                            }
                            JOINT LeftFinger2
                            {
                                OFFSET   8.364490   0.000015   1.078090
                                CHANNELS 3 Zrotation Xrotation Yrotation
                                JOINT LeftFinger21
                                {
                                    OFFSET   5.111620   0.000000   0.000000
                                    CHANNELS 3 Zrotation Xrotation Yrotation
                                    JOINT LeftFinger22
                                    {
                                        OFFSET   2.788160   0.000016   0.000000
                                        CHANNELS 3 Zrotation Xrotation Yrotation
                                        End Site
                                        {
                                            OFFSET   2.727660   0.000000   0.000000
                                        }
                                    }
                                }
                            }
                            JOINT LeftFinger3
                            {
                                OFFSET   7.899780   0.000017  -1.078090
                                CHANNELS 3 Zrotation Xrotation Yrotation
                                JOINT LeftFinger31
                                {
                                    OFFSET   4.646930   0.000000   0.000000
                                    CHANNELS 3 Zrotation Xrotation Yrotation
                                    JOINT LeftFinger32
                                    {
                                        OFFSET   2.323470   0.000000   0.000000
                                        CHANNELS 3 Zrotation Xrotation Yrotation
                                        End Site
                                        {
                                            OFFSET   2.273050   0.000000   0.000000
                                        }
                                    }
                                }
                            }
                            JOINT LeftFinger4
                            {
                                OFFSET   7.435090   0.000000  -3.252850
                                CHANNELS 3 Zrotation Xrotation Yrotation
                                JOINT LeftFinger41
                                {
                                    OFFSET   3.717550   0.000000   0.000000
                                    CHANNELS 3 Zrotation Xrotation Yrotation
                                    JOINT LeftFinger42
                                    {
                                        OFFSET   1.858770   0.000000   0.000000
                                        CHANNELS 3 Zrotation Xrotation Yrotation
                                        End Site
                                        {
                                            OFFSET   1.818440   0.000000   0.000000
                                        }
                                    }
                                }
                            }
                        }
                    }
                }
            }
            JOINT RightCollar
            {
                OFFSET  -3.911900  19.017000  -0.467063
                CHANNELS 3 Zrotation Xrotation Yrotation
                JOINT RightShoulder
                {
                    OFFSET -10.383700   0.000019   0.000000
                    CHANNELS 3 Zrotation Xrotation Yrotation
                    JOINT RightElbow
                    {
                        OFFSET -26.662100   0.001175   0.000102
                        CHANNELS 3 Zrotation Xrotation Yrotation
                        JOINT RightWrist
                        {
                            OFFSET -28.869000   0.000016  -0.000079
                            CHANNELS 3 Zrotation Xrotation Yrotation
                            JOINT RightFinger0
                            {
                                OFFSET  -2.044660  -2.323490   3.252850
                                CHANNELS 3 Zrotation Xrotation Yrotation
                                JOINT RightFinger01
                                {
                                    OFFSET  -3.088140   0.000000   0.000000
                                    CHANNELS 3 Zrotation Xrotation Yrotation
                                    JOINT RightFinger02
                                    {
                                        OFFSET  -2.639460   0.000000   0.000000
                                        CHANNELS 3 Zrotation Xrotation Yrotation
                                        End Site
                                        {
                                            OFFSET  -2.582190   0.000000   0.000000
                                        }
                                    }
                                }
                            }
                            JOINT RightFinger1
                            {
                                OFFSET  -8.364480   0.000000   3.252850
                                CHANNELS 3 Zrotation Xrotation Yrotation
                                JOINT RightFinger11
                                {
                                    OFFSET  -4.646930   0.000000   0.000000
                                    CHANNELS 3 Zrotation Xrotation Yrotation
                                    JOINT RightFinger12
                                    {
                                        OFFSET  -2.323470   0.000000   0.000000
                                        CHANNELS 3 Zrotation Xrotation Yrotation
                                        End Site
                                        {
                                            OFFSET  -2.273050   0.000000   0.000000
                                        }
                                    }
                                }
                            }
                            JOINT RightFinger2
                            {
                                OFFSET  -8.364480   0.000000   1.078090
                                CHANNELS 3 Zrotation Xrotation Yrotation
                                JOINT RightFinger21
                                {
                                    OFFSET  -5.111620   0.000000   0.000000
                                    CHANNELS 3 Zrotation Xrotation Yrotation
                                    JOINT RightFinger22
                                    {
                                        OFFSET  -2.788160   0.000000   0.000000
                                        CHANNELS 3 Zrotation Xrotation Yrotation
                                        End Site
                                        {
                                            OFFSET  -2.727660   0.000000   0.000000
                                        }
                                    }
                                }
                            }
                            JOINT RightFinger3
                            {
                                OFFSET  -7.899780   0.000000  -1.078090
                                CHANNELS 3 Zrotation Xrotation Yrotation
                                JOINT RightFinger31
                                {
                                    OFFSET  -4.646930   0.000000   0.000000
                                    CHANNELS 3 Zrotation Xrotation Yrotation
                                    JOINT RightFinger32
                                    {
                                        OFFSET  -2.323470   0.000000   0.000000
                                        CHANNELS 3 Zrotation Xrotation Yrotation
                                        End Site
                                        {
                                            OFFSET  -2.273050   0.000000   0.000000
                                        }
                                    }
                                }
                            }
                            JOINT RightFinger4
                            {
                                OFFSET  -7.435090   0.000000  -3.252850
                                CHANNELS 3 Zrotation Xrotation Yrotation
                                JOINT RightFinger41
                                {
                                    OFFSET  -3.717550   0.000000   0.000000
                                    CHANNELS 3 Zrotation Xrotation Yrotation
                                    JOINT RightFinger42
                                    {
                                        OFFSET  -1.858770   0.000000   0.000000
                                        CHANNELS 3 Zrotation Xrotation Yrotation
                                        End Site
                                        {
                                            OFFSET  -1.818440   0.000000   0.000000
                                        }
                                    }
                                }
                            }
                        }
                    }
                }
            }
        }
    }
    JOINT LeftHip
    {
        OFFSET   9.783040   0.000000   0.000000
        CHANNELS 3 Zrotation Xrotation Yrotation
        JOINT LeftKnee
        {
            OFFSET   0.000032 -41.789100  -0.002222
            CHANNELS 3 Zrotation Xrotation Yrotation
            JOINT LeftAnkle
            {
                OFFSET   0.000087 -41.133200  -0.000135
                CHANNELS 3 Zrotation Xrotation Yrotation
                JOINT LeftToe
                {
                    OFFSET   0.000000  -6.358960  14.674500
                    CHANNELS 3 Zrotation Xrotation Yrotation
                    End Site
                    {
                        OFFSET   0.000000   0.000000   3.913200
                    }
                }
            }
        }
    }
    JOINT RightHip
    {
        OFFSET  -9.783040   0.000000   0.000000
        CHANNELS 3 Zrotation Xrotation Yrotation
        JOINT RightKnee
        {
            OFFSET   0.000047 -41.789100  -0.000896
            CHANNELS 3 Zrotation Xrotation Yrotation
            JOINT RightAnkle
            {
                OFFSET  -0.000117 -41.133300  -0.000248
                CHANNELS 3 Zrotation Xrotation Yrotation
                JOINT RightToe
                {
                    OFFSET   0.000000  -6.358970  14.674500
                    CHANNELS 3 Zrotation Xrotation Yrotation
                    End Site
                    {
                        OFFSET   0.000000   0.000000   3.913200
                    }
                }
            }
        }
    }
}
MOTION
Frames: 6
Frame Time:   0.016667
  0.303402  89.534200   1.181020  -1.391960  -5.223460   0.885417   1.048640   4.979630  -0.004077   2.109550   9.958320  -0.100482  -6.881080  -0.915116  -0.111237 -11.314500  -1.775830  12.427500  -4.300110  -0.312808   1.017170 -32.687900  53.949100  -8.728860   3.266370  27.560300 -70.728500  67.475400 -14.341800 -27.142900  78.455100  47.903200 -104.027000  22.345600   0.000643   0.001375  14.999500  -0.000220   0.002442  -7.887290   0.225307  -1.626870  -6.455830  -0.008338  -0.002903  -4.519080  -0.005095  -0.003549 -19.061600   0.536441  -1.552340 -19.068900  -0.001744   0.000332 -12.699900   0.002316  -0.001936 -23.353700   0.555280  -1.285740 -23.360200   0.003384  -0.000548 -15.557900   0.004598  -0.001962 -23.948600   0.186324  -0.419512 -35.923900   0.003107  -0.002227 -23.925300   0.002446  -0.005562   0.962416  -0.721778   6.178150  62.323300  49.364100 -18.447700  -8.253300  20.697700  74.329800 -85.239900  -5.214630  32.849000 -72.343800  51.502900 110.413000 -20.098700  -0.001268  -0.001493 -14.998700   0.003405   0.002147  20.270300   3.724910   9.977770  16.850700   0.005686   0.000469  11.795500  -0.000823  -0.002135  23.076700   3.126390   7.294630  23.276000  -0.006261  -0.001414  15.501800  -0.001332  -0.001764  27.059400   3.572270   6.953850  28.166300  -0.005948   0.003784  18.759000   0.001753   0.005124  21.530800   0.400157   1.013850  32.301600   0.001152   0.002555  21.512900   0.001076   0.001650   3.797100   7.878580   4.118090   0.730668   0.189711  11.141200  -5.397740  -2.451830   2.663360   0.000000   0.000000  -0.000000  -0.492710   5.151800  -2.377200   1.144770   2.086160  -8.345610  -1.177490  -2.477930  -2.170390  -0.000000   0.000000   0.000000
  0.304988  89.531500   1.194700  -1.396340  -5.201810   0.872552   1.048260   4.959250  -0.001709   2.108600   9.917650  -0.095426  -6.876110  -0.891488  -0.107651 -11.303700  -1.729970  12.398000  -4.295590  -0.300062   1.022690 -32.730700  53.916900  -8.706320   3.277810  27.579500 -70.721500  67.439200 -14.318000 -27.135100  78.432500  47.904100 -104.014000  22.344600   0.000669   0.001373  14.999500  -0.000209   0.002424  -7.901300   0.229167  -1.650820  -6.467380  -0.008334  -0.002867  -4.527170  -0.005084  -0.003547 -19.070800   0.544687  -1.575130 -19.078300  -0.001756   0.000323 -12.706100   0.002374  -0.001961 -23.364300   0.553389  -1.280750 -23.370500   0.003393  -0.000556 -15.564800   0.004541  -0.001988 -23.949900   0.186185  -0.419179 -35.925800   0.003144  -0.002223 -23.926600   0.002460  -0.005688   0.971535  -0.709886   6.183950  62.285300  49.338400 -18.450900  -8.231530  20.740100  74.349200 -85.223500  -5.208300  32.902300 -72.426700  51.483700 110.423000 -20.114200  -0.001255  -0.001454 -14.998700   0.003471   0.002101  20.273100   3.729590   9.987420  16.853800   0.005784   0.000477  11.797700  -0.000806  -0.002100  23.080500   3.127770   7.296510  23.280000  -0.006442  -0.001337  15.504400  -0.001314  -0.001719  27.059700   3.571000   6.951570  28.162900  -0.005909   0.003859  18.756800   0.001703   0.005092  21.522800   0.396581   1.005480  32.289400   0.001136   0.002584  21.504800   0.001067   0.001671   3.796500   7.872880   4.126000   0.729231   0.179814  11.143900  -5.396020  -2.458380   2.668190  -0.000000   0.000000   0.000000  -0.488691   5.150040  -2.374050   1.148230   2.068570  -8.341770  -1.182920  -2.482220  -2.167950   0.000000   0.000000   0.000000
  0.308620  89.528900   1.208820  -1.397790  -5.189440   0.866125   1.047720   4.943380  -0.002040   2.107670   9.885910  -0.095835  -6.876190  -0.870176  -0.104994 -11.299500  -1.688680  12.386200  -4.304330  -0.299881   1.022520 -32.739200  53.930900  -8.692510   3.284780  27.564900 -70.726100  67.418500 -14.297900 -27.118900  78.488500  47.902900 -104.045000  22.351300   0.000697   0.001367  14.999500  -0.000188   0.002403  -7.897020   0.234211  -1.687950  -6.464020  -0.008333  -0.002840  -4.524820  -0.005083  -0.003545 -19.069100   0.556901  -1.610580 -19.077000  -0.001751   0.000329 -12.705200   0.002417  -0.001994 -23.364800   0.562915  -1.302930 -23.371200   0.003410  -0.000574 -15.565200   0.004492  -0.002005 -23.930500   0.202212  -0.455835 -35.896900   0.003198  -0.002220 -23.907300   0.002483  -0.005823   0.987284  -0.693785   6.196500  62.275900  49.339400 -18.470600  -8.245880  20.743500  74.361400 -85.221100  -5.218680  32.923100 -72.466900  51.474400 110.427000 -20.121700  -0.001226  -0.001414 -14.998800   0.003550   0.002055  20.289400   3.731560   9.983070  16.867100   0.005882   0.000482  11.806900  -0.000790  -0.002055  23.081300   3.112590   7.261270  23.278900  -0.006620  -0.001268  15.503700  -0.001294  -0.001676  27.061000   3.565080   6.940350  28.159400  -0.005868   0.003935  18.754300   0.001654   0.005056  21.525200   0.390859   0.990896  32.292900   0.001121   0.002600  21.507100   0.001059   0.001691   3.794170   7.883560   4.136570   0.727639   0.151546  11.145700  -5.391260  -2.457030   2.667490  -0.000000   0.000000  -0.000000  -0.483767   5.183120  -2.368500   1.148650   2.028850  -8.342330  -1.183950  -2.488890  -2.167050  -0.000000   0.000000   0.000000
  0.313693  89.526800   1.222950  -1.398400  -5.180620   0.862560   1.047120   4.928240  -0.003240   2.106270   9.855590  -0.097814  -6.877270  -0.848772  -0.102361 -11.304900  -1.647130  12.384300  -4.316840  -0.299700   1.022060 -32.737100  53.954600  -8.687230   3.279510  27.545100 -70.729100  67.411400 -14.287400 -27.100300  78.574400  47.898600 -104.089000  22.362100   0.000725   0.001361  14.999500  -0.000165   0.002381  -7.892760   0.239060  -1.723960  -6.460660  -0.008332  -0.002815  -4.522470  -0.005082  -0.003541 -19.067500   0.568737  -1.644960 -19.075700  -0.001747   0.000335 -12.704400   0.002458  -0.002027 -23.365200   0.576448  -1.334030 -23.371900   0.003422  -0.000593 -15.565700   0.004446  -0.002022 -23.911000   0.223382  -0.503856 -35.868000   0.003248  -0.002218 -23.888100   0.002508  -0.005956   1.004860  -0.672731   6.205360  62.266800  49.346900 -18.485400  -8.250110  20.742400  74.367400 -85.226100  -5.230310  32.934900 -72.490500  51.468900 110.430000 -20.126200  -0.001196  -0.001375 -14.998800   0.003631   0.002010  20.312600   3.734170   9.978730  16.886200   0.005980   0.000486  11.820300  -0.000774  -0.002008  23.082100   3.097410   7.226030  23.277700  -0.006797  -0.001200  15.503000  -0.001273  -0.001633  27.062600   3.557680   6.925950  28.157300  -0.005827   0.004012  18.752800   0.001606   0.005018  21.527600   0.386997   0.980901  32.296400   0.001105   0.002613  21.509400   0.001050   0.001711   3.791070   7.894230   4.148150   0.726853   0.131821  11.146100  -5.386090  -2.455690   2.664880   0.000000   0.000000   0.000000  -0.480707   5.216220  -2.360760   1.148390   2.000570  -8.346130  -1.184350  -2.496870  -2.166760  -0.000000   0.000000  -0.000000
  0.319876  89.525500   1.237170  -1.398930  -5.170920   0.859720   1.046580   4.910490  -0.006390   2.105380   9.820050  -0.103665  -6.889250  -0.826966  -0.099654 -11.326000  -1.604640  12.405700  -4.322540  -0.292213   1.021700 -32.698000  53.977000  -8.720470   3.256110  27.536000 -70.722800  67.433800 -14.290200 -27.084800  78.632700  47.892900 -104.114000  22.370600   0.000748   0.001360  14.999500  -0.000146   0.002355  -7.903900   0.242099  -1.742840  -6.469870  -0.008333  -0.002786  -4.528910  -0.005069  -0.003533 -19.078200   0.575339  -1.662890 -19.086600  -0.001749   0.000318 -12.711700   0.002509  -0.002048 -23.379900   0.582274  -1.347530 -23.386500   0.003419  -0.000606 -15.575400   0.004395  -0.002048 -23.912600   0.229383  -0.517116 -35.870600   0.003270  -0.002231 -23.889800   0.002532  -0.006074   1.021600  -0.640424   6.204740  62.230900  49.368600 -18.465300  -8.249010  20.746900  74.370500 -85.242000  -5.230390  32.941700 -72.496500  51.467500 110.431000 -20.127400  -0.001180  -0.001336 -14.998800   0.003704   0.001963  20.342700   3.742290   9.984320  16.911600   0.006076   0.000487  11.838100  -0.000755  -0.001969  23.101500   3.102680   7.229370  23.297600  -0.006974  -0.001124  15.516200  -0.001253  -0.001591  27.063000   3.555130   6.920490  28.163500  -0.005787   0.004090  18.756900   0.001561   0.004974  21.522600   0.389419   0.987300  32.289400   0.001084   0.002623  21.504500   0.001038   0.001731   3.788400   7.880270   4.158540   0.723662   0.158312  11.145900  -5.383860  -2.479230   2.657980  -0.000000   0.000000   0.000000  -0.483824   5.155540  -2.349490   1.145910   2.062100  -8.358390  -1.184640  -2.505300  -2.166210   0.000000   0.000000   0.000000
  0.327072  89.524700   1.251030  -1.399490  -5.160390   0.855391   1.046040   4.891870  -0.008669   2.104400   9.782800  -0.107945  -6.914080  -0.801984  -0.096755 -11.364700  -1.555710  12.446600  -4.326090  -0.281059   1.020340 -32.662500  53.996200  -8.753100   3.233240  27.530100 -70.714900  67.469800 -14.298200 -27.070700  78.675800  47.889900 -104.125000  22.377300   0.000769   0.001360  14.999400  -0.000128   0.002329  -7.930380   0.244816  -1.756750  -6.491570  -0.008333  -0.002758  -4.544100  -0.005052  -0.003525 -19.102700   0.580608  -1.676030 -19.111200  -0.001751   0.000300 -12.728100   0.002560  -0.002069 -23.409000   0.585447  -1.352100 -23.415900   0.003417  -0.000616 -15.595000   0.004344  -0.002076 -23.921500   0.230240  -0.519010 -35.883800   0.003291  -0.002243 -23.898600   0.002554  -0.006190   1.037710  -0.610290   6.200640  62.187200  49.386700 -18.432000  -8.239370  20.761100  74.367800 -85.258200  -5.230090  32.955000 -72.502900  51.466000 110.432000 -20.128600  -0.001165  -0.001298 -14.998900   0.003775   0.001917  20.374600   3.750930   9.989920  16.938500   0.006173   0.000488  11.856900  -0.000737  -0.001930  23.132800   3.107950   7.232710  23.329300  -0.007150  -0.001048  15.537300  -0.001234  -0.001546  27.063800   3.550400   6.910340  28.177700  -0.005746   0.004167  18.766300   0.001515   0.004929  21.517700   0.391840   0.993700  32.282300   0.001063   0.002636  21.499600   0.001024   0.001754   3.784200   7.866320   4.167720   0.720472   0.184803  11.145800  -5.380750  -2.502770   2.652980  -0.000000   0.000000   0.000000  -0.488002   5.077100  -2.337890   1.143550   2.137000  -8.367560  -1.184910  -2.514490  -2.165620   0.000000   0.000000   0.000000
